<svg width="18" height="18" viewBox="0 0 18 18" fill="none" xmlns="http://www.w3.org/2000/svg">
  <path fill-rule="evenodd" clip-rule="evenodd" d="M10.4965 8.99938L17.6887 1.80718C17.9561 1.53975 18.0606 1.14996 17.9627 0.784644C17.8648 0.419327 17.5794 0.133982 17.2141 0.0360953C16.8488 -0.0617911 16.459 0.0426525 16.1916 0.310083L8.99938 7.50229L1.80718 0.310083C1.53975 0.0426525 1.14996 -0.0617911 0.784643 0.0360953C0.419327 0.133982 0.133982 0.419327 0.0360953 0.784644C-0.0617911 1.14996 0.0426524 1.53975 0.310083 1.80718L7.50229 8.99938L0.310083 16.1916C-0.103329 16.605 -0.103329 17.2753 0.310083 17.6887C0.723495 18.1021 1.39377 18.1021 1.80718 17.6887L8.99938 10.4965L16.1916 17.6887C16.3897 17.888 16.6591 18 16.9401 18C17.2211 18 17.4906 17.888 17.6887 17.6887C17.8874 17.4903 17.9991 17.221 17.9991 16.9401C17.9991 16.6593 17.8874 16.39 17.6887 16.1916L10.4965 8.99938Z" fill="#919191" />
</svg>
