<svg width="24" height="24" viewBox="0 0 24 24" fill="none" xmlns="http://www.w3.org/2000/svg">
<path fill-rule="evenodd" clip-rule="evenodd" d="M15.4817 7.11358H13.7974C13.464 7.11358 13.1271 7.46244 13.1271 7.7213V9.45273H15.4774C15.3831 10.7804 15.1903 11.995 15.1903 11.995H13.1151V19.5224H10.0234V11.995H8.51829V9.46216H10.0234V7.39044C10.0234 7.01158 9.94715 4.47701 13.1914 4.47701H15.4817V7.11358ZM12 0C5.37257 0 0 5.37343 0 11.9991C0 18.6274 5.37257 24 12 24C18.6283 24 24 18.6274 24 11.9991C24 5.37343 18.6283 0 12 0Z" fill="#919191"/>
</svg>
