<svg width="24" height="24" viewBox="0 0 24 24" fill="none" xmlns="http://www.w3.org/2000/svg">
<path d="M11.9977 14.4633C10.6386 14.4633 9.53692 13.3616 9.53692 12.0025C9.53692 10.6435 10.6386 9.54177 11.9977 9.54177C13.3567 9.54177 14.4584 10.6435 14.4584 12.0025C14.4584 13.3616 13.3567 14.4633 11.9977 14.4633Z" fill="#919191"/>
<path fill-rule="evenodd" clip-rule="evenodd" d="M11.9977 5.94997C13.9688 5.94997 14.2023 5.9575 14.9807 5.99302C15.7005 6.02584 16.0914 6.1461 16.3515 6.2472C16.6961 6.38112 16.942 6.54109 17.2003 6.79944C17.4587 7.05775 17.6187 7.30367 17.7526 7.64826C17.8537 7.90839 17.9739 8.29927 18.0068 9.01904C18.0423 9.79747 18.0498 10.031 18.0498 12.0021C18.0498 13.9733 18.0423 14.2068 18.0068 14.9852C17.9739 15.705 17.8537 16.0958 17.7526 16.356C17.6187 16.7006 17.4587 16.9465 17.2003 17.2048C16.942 17.4631 16.6961 17.6231 16.3515 17.757C16.0914 17.8581 15.7005 17.9784 14.9807 18.0112C14.2024 18.0467 13.969 18.0543 11.9977 18.0543C10.0264 18.0543 9.79293 18.0467 9.01459 18.0112C8.29482 17.9784 7.90394 17.8581 7.6438 17.757C7.29922 17.6231 7.0533 17.4631 6.79498 17.2048C6.53667 16.9465 6.37667 16.7006 6.24275 16.356C6.14165 16.0958 6.02139 15.705 5.98857 14.9852C5.95305 14.2068 5.94552 13.9733 5.94552 12.0021C5.94552 10.031 5.95305 9.79747 5.98857 9.01904C6.02139 8.29927 6.14165 7.90839 6.24275 7.64826C6.37667 7.30367 6.53664 7.05775 6.79498 6.79944C7.0533 6.54109 7.29922 6.38112 7.6438 6.2472C7.90394 6.1461 8.29482 6.02584 9.01459 5.99302C9.79302 5.9575 10.0265 5.94997 11.9977 5.94997ZM8.20679 12.0022C8.20679 9.90847 9.90402 8.21124 11.9977 8.21124C14.0914 8.21124 15.7886 9.90847 15.7886 12.0022C15.7886 14.0958 14.0914 15.793 11.9977 15.793C9.90402 15.793 8.20679 14.0958 8.20679 12.0022ZM15.9384 8.94768C16.4276 8.94768 16.8243 8.55108 16.8243 8.06182C16.8243 7.57256 16.4276 7.17593 15.9384 7.17593C15.4491 7.17593 15.0525 7.57256 15.0525 8.06182C15.0525 8.55108 15.4491 8.94768 15.9384 8.94768Z" fill="#919191"/>
<path fill-rule="evenodd" clip-rule="evenodd" d="M24 12C24 18.6274 18.6274 24 12 24C5.37258 24 0 18.6274 0 12C0 5.37258 5.37258 0 12 0C18.6274 0 24 5.37258 24 12ZM8.95396 4.66432C9.74136 4.62839 9.99276 4.61989 11.9977 4.61989C14.0026 4.61989 14.254 4.62839 15.0414 4.66432C15.8271 4.70016 16.3638 4.82496 16.8333 5.00747C17.3188 5.1961 17.7305 5.44852 18.1409 5.85892C18.5513 6.26936 18.8038 6.68105 18.9924 7.1665C19.1749 7.63607 19.2997 8.17271 19.3355 8.95847C19.3715 9.74587 19.38 9.99727 19.38 12.0022C19.38 14.0071 19.3715 14.2585 19.3355 15.0459C19.2997 15.8316 19.1749 16.3683 18.9924 16.8379C18.8038 17.3233 18.5513 17.735 18.1409 18.1454C17.7305 18.5558 17.3188 18.8083 16.8333 18.9969C16.3638 19.1794 15.8271 19.3042 15.0414 19.34C14.254 19.376 14.0026 19.3845 11.9977 19.3845C9.99276 19.3845 9.74136 19.376 8.95396 19.34C8.16821 19.3042 7.63156 19.1794 7.16199 18.9969C6.67654 18.8083 6.26485 18.5558 5.85442 18.1454C5.44402 17.735 5.19159 17.3233 5.00296 16.8379C4.82045 16.3683 4.69565 15.8316 4.65981 15.0459C4.62388 14.2585 4.61538 14.0071 4.61538 12.0022C4.61538 9.99727 4.62388 9.74587 4.65981 8.95847C4.69565 8.17271 4.82045 7.63607 5.00296 7.1665C5.19159 6.68105 5.44402 6.26936 5.85442 5.85892C6.26485 5.44852 6.67654 5.1961 7.16199 5.00747C7.63156 4.82496 8.16821 4.70016 8.95396 4.66432Z" fill="#919191"/>
</svg>
