<svg width="24" height="24" viewBox="0 0 24 24" fill="none" xmlns="http://www.w3.org/2000/svg">
<path fill-rule="evenodd" clip-rule="evenodd" d="M17.5234 9.82289C17.5277 9.93432 17.5294 10.0449 17.5294 10.158C17.5294 13.584 14.922 17.5346 10.1537 17.5346C8.68886 17.5346 7.32686 17.1069 6.18001 16.3697C6.38315 16.3937 6.58886 16.4057 6.79801 16.4057C8.01258 16.4057 9.13029 15.9917 10.0183 15.2957C8.88429 15.276 7.92601 14.5252 7.59601 13.4957C7.75458 13.5266 7.91744 13.5429 8.08458 13.5429C8.32029 13.5429 8.54829 13.5103 8.76772 13.4512C7.58058 13.2129 6.68658 12.1646 6.68658 10.9097V10.8763C7.03715 11.07 7.43658 11.1875 7.86258 11.2003C7.16572 10.734 6.70801 9.94203 6.70801 9.04289C6.70801 8.56717 6.83572 8.12317 7.05944 7.73832C8.33744 9.30775 10.2489 10.3397 12.4029 10.4486C12.3591 10.2592 12.336 10.0595 12.336 9.85717C12.336 8.42489 13.4974 7.26517 14.9289 7.26517C15.6746 7.26517 16.3474 7.57975 16.8206 8.08375C17.412 7.96717 17.9666 7.75117 18.468 7.45375C18.2734 8.05889 17.8629 8.56717 17.3272 8.88775C17.8517 8.82689 18.3523 8.68717 18.816 8.4806C18.468 9.00003 18.03 9.45603 17.5234 9.82289ZM12 0C5.37257 0 0 5.37343 0 12C0 18.6266 5.37257 24 12 24C18.0429 24 23.04 19.5326 23.8749 13.7211C23.9554 13.326 23.9931 12.9171 23.9863 12.4954C23.9949 12.3317 24 12.1663 24 12C24 5.37343 18.6283 0 12 0Z" fill="#919191"/>
</svg>
