<svg width="24" height="24" viewBox="0 0 24 24" fill="none" xmlns="http://www.w3.org/2000/svg">
<path d="M10.1538 9.23077L10.1546 13.8462L14.7692 11.5465L10.1538 9.23077Z" fill="#919191"/>
<path fill-rule="evenodd" clip-rule="evenodd" d="M12 24C18.6274 24 24 18.6274 24 12C24 5.37258 18.6274 0 12 0C5.37258 0 0 5.37258 0 12C0 18.6274 5.37258 24 12 24ZM20.1418 8.85116C20.1418 8.85116 19.9794 7.76587 19.4812 7.28795C18.9116 6.72244 18.2799 6.66423 17.9231 6.63135C17.8841 6.62776 17.8484 6.62447 17.8164 6.62086C15.4913 6.46154 12.0036 6.46154 12.0036 6.46154H11.9964C11.9964 6.46154 8.50871 6.46154 6.18355 6.62086C6.15158 6.62447 6.1159 6.62776 6.07695 6.63135C5.72013 6.66423 5.0886 6.72242 4.51876 7.28795C4.02058 7.76587 3.85847 8.85116 3.85847 8.85116C3.85847 8.85116 3.69231 10.1256 3.69231 11.4001V12.5949C3.69231 13.8694 3.85847 15.1438 3.85847 15.1438C3.85847 15.1438 4.02058 16.2291 4.51876 16.7071C5.04278 17.2271 5.70303 17.3024 6.12416 17.3504C6.21098 17.3603 6.28763 17.369 6.35083 17.3803C7.68008 17.5011 12 17.5385 12 17.5385C12 17.5385 15.4913 17.5335 17.8164 17.3742C17.8484 17.3706 17.8841 17.3673 17.923 17.3637C18.2799 17.3308 18.9116 17.2726 19.4812 16.7071C19.9794 16.2291 20.1418 15.1438 20.1418 15.1438C20.1418 15.1438 20.3077 13.8694 20.3077 12.5949V11.4001C20.3077 10.1256 20.1418 8.85116 20.1418 8.85116Z" fill="#919191"/>
</svg>
